<?xml version="1.0" standalone="no"?>
<!DOCTYPE svg PUBLIC "-//W3C//DTD SVG 20010904//EN"
 "http://www.w3.org/TR/2001/REC-SVG-20010904/DTD/svg10.dtd">
<svg version="1.0" xmlns="http://www.w3.org/2000/svg"
 width="55.000000pt" height="51.000000pt" viewBox="0 0 55.000000 51.000000"
 preserveAspectRatio="xMidYMid meet">

<g transform="translate(0.000000,51.000000) scale(0.100000,-0.100000)"
fill="#000" stroke="none">
<path d="M79 494 c-11 -14 -10 -19 10 -35 28 -23 35 -23 51 -4 10 13 10 19 -5
35 -22 24 -38 25 -56 4z"/>
<path d="M425 490 c-19 -21 -14 -50 8 -50 8 0 22 9 32 20 15 16 15 22 5 35
-16 20 -23 19 -45 -5z"/>
<path d="M217 486 c-122 -44 -151 -186 -59 -288 33 -37 37 -47 40 -108 l4 -68
39 -6 c21 -3 57 -3 79 0 l40 7 0 54 c0 59 8 79 54 136 26 32 31 49 34 105 3
57 0 72 -20 102 -27 40 -98 80 -143 80 -16 -1 -47 -7 -68 -14z m123 -52 c69
-41 80 -125 25 -197 -19 -25 -39 -57 -45 -71 -7 -20 -17 -26 -39 -26 -26 0
-33 6 -50 45 -11 25 -24 45 -28 45 -17 0 -43 59 -43 95 0 95 100 156 180 109z
m-30 -349 c0 -10 -10 -15 -30 -15 -20 0 -30 5 -30 15 0 10 10 15 30 15 20 0
30 -5 30 -15z"/>
<path d="M10 310 c0 -16 7 -20 35 -20 28 0 35 4 35 20 0 16 -7 20 -35 20 -28
0 -35 -4 -35 -20z"/>
<path d="M480 310 c0 -16 7 -20 35 -20 28 0 35 4 35 20 0 16 -7 20 -35 20 -28
0 -35 -4 -35 -20z"/>
<path d="M92 157 c-17 -18 -19 -26 -10 -35 17 -17 32 -15 53 8 15 16 15 22 5
35 -17 20 -23 19 -48 -8z"/>
<path d="M421 166 c-28 -33 27 -74 57 -44 9 9 7 17 -10 35 -25 27 -31 28 -47
9z"/>
</g>
</svg>
