<?xml version="1.0" standalone="no"?>
<!DOCTYPE svg PUBLIC "-//W3C//DTD SVG 20010904//EN"
 "http://www.w3.org/TR/2001/REC-SVG-20010904/DTD/svg10.dtd">
<svg version="1.0" xmlns="http://www.w3.org/2000/svg"
 width="52.000000pt" height="46.000000pt" viewBox="0 0 52.000000 46.000000"
 preserveAspectRatio="xMidYMid meet">

<g transform="translate(0.000000,46.000000) scale(0.100000,-0.100000)"
fill="#000000" stroke="none">
<path d="M183 432 l-63 -25 0 -63 0 -63 -55 -25 -55 -25 0 -80 0 -79 67 -37
67 -37 58 28 58 28 58 -28 57 -27 68 37 67 38 0 78 0 79 -55 24 -55 25 0 63 0
64 -68 26 c-37 15 -72 27 -77 26 -6 0 -38 -12 -72 -27z m102 -31 c19 -8 19 -8
-3 -20 -17 -9 -27 -9 -44 0 -22 12 -22 12 -3 20 11 4 22 8 25 8 3 0 14 -4 25
-8z m-74 -61 c21 -12 28 -80 8 -80 -29 0 -49 22 -49 55 0 37 9 42 41 25z m129
-30 c0 -22 -4 -40 -9 -40 -5 0 -16 -3 -25 -6 -13 -5 -16 2 -16 34 0 39 5 45
43 51 4 0 7 -17 7 -39z m-155 -91 c3 -4 -4 -13 -16 -20 -16 -8 -28 -8 -48 1
l-26 12 24 13 c24 12 57 10 66 -6z m214 7 l24 -13 -22 -13 c-18 -9 -29 -9 -53
1 l-30 12 24 13 c28 16 28 16 57 0z m-304 -68 c20 -9 25 -18 25 -50 l0 -39
-30 16 c-25 13 -30 22 -30 50 0 39 0 39 35 23z m135 -26 c0 -32 -5 -41 -25
-50 -35 -16 -35 -17 -35 26 0 30 5 41 23 50 34 17 37 15 37 -26z m91 28 c14
-8 19 -21 19 -50 0 -39 -1 -39 -25 -28 -20 9 -25 18 -25 50 0 41 2 43 31 28z
m139 -25 c0 -28 -5 -37 -30 -50 l-30 -16 0 40 c0 28 5 43 18 50 31 19 42 12
42 -24z">
</g>
</svg>
