<?xml version="1.0" standalone="no"?>
<!DOCTYPE svg PUBLIC "-//W3C//DTD SVG 20010904//EN"
 "http://www.w3.org/TR/2001/REC-SVG-20010904/DTD/svg10.dtd">
<svg version="1.0" xmlns="http://www.w3.org/2000/svg"
 width="162.000000pt" height="162.000000pt" viewBox="0 0 162.000000 162.000000"
 preserveAspectRatio="xMidYMid meet">
<metadata>
Created by potrace 1.14, written by Peter Selinger 2001-2017
</metadata>
<g transform="translate(0.000000,162.000000) scale(0.100000,-0.100000)"
fill="#000000" stroke="none">
<path d="M654 1201 c9 -14 -16 -20 -38 -9 -14 8 -17 7 -11 -3 6 -9 3 -11 -8
-6 -19 7 -49 -1 -43 -12 3 -4 -4 -8 -15 -8 -12 -1 -17 3 -13 9 5 7 2 8 -5 4
-7 -5 -10 -14 -7 -22 4 -11 2 -12 -14 -4 -13 7 -21 7 -26 -2 -5 -7 -3 -8 6 -3
9 5 11 4 6 -4 -6 -9 -11 -9 -22 0 -13 11 -18 6 -15 -14 1 -4 -4 -7 -11 -6 -31
4 -48 -2 -48 -17 0 -14 -3 -14 -16 -4 -12 11 -15 11 -12 -1 2 -9 -5 -14 -18
-13 -14 1 -21 -5 -20 -15 1 -10 -6 -15 -16 -13 -10 2 -18 -2 -18 -8 0 -6 -4
-9 -9 -6 -5 3 -12 -1 -15 -9 -3 -8 -10 -14 -15 -13 -5 2 -17 -6 -26 -17 -9
-11 -14 -13 -10 -5 3 8 -2 5 -11 -7 -9 -13 -21 -23 -26 -23 -5 0 -28 -18 -50
-40 -23 -22 -45 -40 -49 -40 -4 0 -11 -9 -14 -20 -4 -11 -10 -18 -13 -16 -4 2
-17 -11 -30 -30 -18 -27 -19 -34 -7 -34 8 0 15 -8 15 -17 0 -9 3 -13 6 -10 4
4 15 -3 25 -15 11 -11 19 -17 19 -12 0 5 10 -4 21 -21 13 -19 19 -23 15 -10
-4 13 7 5 30 -20 20 -22 33 -33 28 -25 -4 8 4 4 18 -10 13 -14 23 -28 22 -31
-2 -3 3 -6 11 -6 8 0 12 4 9 8 -5 9 31 31 39 23 3 -3 8 4 12 15 4 12 11 18 17
15 7 -5 9 -1 5 9 -3 9 -1 19 5 23 7 5 8 2 4 -7 -4 -8 2 -3 13 11 11 14 21 22
21 18 0 -4 12 4 26 17 15 14 32 25 39 25 7 0 24 11 38 24 14 13 28 21 31 18 3
-3 6 0 6 7 0 7 5 9 10 6 6 -3 10 -1 10 5 0 6 5 8 10 5 6 -3 10 -1 10 5 0 6 5
8 10 5 6 -3 10 -1 10 6 0 7 3 9 6 6 4 -4 20 3 36 15 25 17 32 18 39 7 7 -12 9
-12 9 0 0 8 3 11 7 8 3 -4 13 -1 21 6 9 6 13 7 9 1 -3 -6 0 -11 7 -11 8 0 12
6 9 14 -3 7 0 13 6 13 6 0 11 -6 11 -12 0 -10 2 -10 8 -1 4 7 25 11 50 10 23
-2 42 1 42 6 0 4 9 3 20 -3 14 -8 20 -8 20 0 0 6 5 8 10 5 6 -4 8 -10 6 -14
-3 -4 1 -8 9 -8 8 0 12 4 9 8 -6 10 34 3 50 -9 19 -15 48 -23 40 -11 -4 8 0 7
15 0 12 -7 27 -9 33 -5 6 4 8 3 5 -2 -3 -6 -1 -16 4 -24 8 -13 10 -13 18 0 9
12 11 12 17 -3 3 -9 12 -17 20 -17 8 0 14 -6 14 -12 0 -9 4 -8 10 2 8 12 11
11 16 -8 5 -18 9 -20 15 -10 7 10 9 10 9 1 0 -7 7 -13 16 -13 8 0 13 -4 10 -9
-3 -5 8 -14 24 -20 17 -5 30 -13 30 -16 0 -3 -4 -3 -10 0 -24 15 -7 -4 18 -21
19 -13 24 -13 17 -3 -5 8 -2 6 9 -6 10 -11 23 -19 29 -17 6 2 4 -4 -3 -13 -11
-13 -10 -15 4 -9 10 4 18 0 22 -10 3 -9 12 -16 20 -16 8 0 14 -6 14 -14 0 -8
9 -18 21 -21 17 -6 18 -9 7 -22 -11 -14 -11 -15 8 -5 12 6 24 8 28 5 3 -3 6
-1 6 6 0 7 5 9 12 5 6 -4 8 -3 5 3 -3 5 3 17 14 26 10 9 19 14 19 12 0 -3 6 0
14 7 8 7 12 16 9 21 -2 4 3 7 11 7 8 0 24 12 36 28 11 15 33 34 47 43 18 10
28 24 28 42 1 14 -2 24 -7 21 -4 -3 -5 -10 -2 -16 4 -7 2 -8 -4 -4 -7 4 -12
14 -12 22 0 8 -7 14 -15 14 -9 0 -19 8 -22 18 -9 22 -29 42 -43 42 -6 0 -8 5
-5 10 3 6 -1 10 -9 10 -8 0 -20 9 -26 20 -6 11 -16 17 -22 14 -6 -4 -8 -3 -5
3 4 6 -1 17 -10 24 -12 10 -14 10 -9 2 4 -7 2 -13 -3 -13 -6 0 -11 7 -11 15 0
8 -5 15 -11 15 -5 0 -7 4 -4 10 3 6 -1 7 -9 4 -10 -4 -16 -1 -16 7 0 7 -3 10
-6 6 -7 -7 -24 6 -61 45 -14 15 -31 24 -39 21 -8 -3 -14 0 -14 6 0 6 -7 8 -15
5 -8 -4 -17 1 -21 9 -3 9 -12 18 -20 21 -10 4 -13 2 -8 -7 4 -6 -3 -3 -15 8
-13 11 -31 19 -41 17 -10 -2 -20 4 -24 13 -5 13 -10 14 -27 4 -15 -8 -19 -8
-15 0 4 6 2 11 -4 11 -6 0 -8 5 -4 13 5 8 2 8 -9 -2 -13 -11 -17 -11 -17 -1 0
8 -3 10 -6 7 -4 -3 -16 -1 -28 5 -30 17 -68 20 -60 5 5 -8 3 -8 -7 1 -9 8 -48
12 -120 12 -77 0 -109 -4 -112 -12 -4 -10 -6 -10 -6 0 -1 6 -10 12 -22 12 -11
0 -18 -4 -15 -9z m337 -18 c13 -16 12 -17 -3 -4 -10 7 -18 15 -18 17 0 8 8 3
21 -13z m300 -120 c13 -16 12 -17 -3 -4 -10 7 -18 15 -18 17 0 8 8 3 21 -13z"/>
<path d="M1 824 c0 -11 3 -14 6 -6 3 7 2 16 -1 19 -3 4 -6 -2 -5 -13z"/>
<path d="M730 821 c0 -7 -6 -11 -15 -7 -10 3 -15 -1 -15 -11 0 -14 -2 -14 -15
3 -10 13 -13 14 -10 3 5 -13 -1 -16 -28 -14 -27 1 -34 -2 -29 -13 4 -10 1 -13
-7 -8 -7 5 -19 0 -27 -10 -15 -18 -15 -18 -10 1 5 18 4 17 -14 -4 -11 -13 -20
-20 -20 -15 0 4 -7 -1 -16 -12 -8 -10 -13 -14 -10 -8 3 6 -1 11 -9 11 -8 0
-14 -3 -13 -6 2 -19 -3 -31 -11 -26 -5 3 -12 1 -16 -5 -4 -6 -11 -8 -16 -5 -5
3 -6 -2 -2 -11 4 -11 2 -15 -4 -11 -6 4 -13 0 -17 -8 -3 -8 -13 -15 -21 -15
-9 0 -13 -4 -10 -10 3 -5 -1 -10 -10 -10 -11 0 -15 -5 -12 -14 4 -11 0 -14
-16 -11 -21 4 -21 3 -4 -9 14 -11 15 -15 5 -19 -8 -3 -6 -6 6 -6 12 -1 16 -6
12 -17 -3 -8 -2 -12 4 -9 6 3 10 1 10 -5 0 -6 5 -8 10 -5 6 3 10 1 10 -5 0 -7
7 -9 16 -6 8 3 14 2 12 -2 -2 -4 10 -20 26 -37 16 -16 26 -23 21 -15 -4 8 1 6
12 -5 11 -11 19 -22 17 -25 -1 -3 7 -7 19 -7 17 -2 19 0 7 7 -15 9 -14 11 13
14 6 1 11 7 10 14 -3 11 9 16 29 13 4 0 12 8 18 19 6 12 16 17 22 14 7 -5 9
-2 5 8 -4 12 -1 14 15 10 14 -3 19 -1 14 6 -5 8 -1 10 10 5 13 -5 15 -3 9 8
-7 11 -5 11 10 -1 15 -12 17 -12 10 -1 -6 11 -3 13 13 9 16 -4 19 -2 15 10 -4
10 -2 13 6 8 6 -4 19 -2 28 6 12 9 15 9 9 1 -9 -16 -1 -16 25 -3 11 7 19 7 19
1 0 -5 17 -8 37 -6 24 2 32 0 22 -6 -11 -7 -8 -9 11 -10 14 -1 28 -1 33 0 4 0
7 -7 7 -17 0 -13 2 -14 9 -4 7 11 9 11 14 -2 4 -10 13 -13 23 -9 11 4 15 2 11
-4 -4 -5 6 -21 21 -34 21 -19 24 -20 13 -4 -7 11 -2 7 13 -8 15 -16 23 -34 19
-40 -5 -9 -3 -9 8 -1 11 9 17 9 26 -1 6 -7 9 -16 6 -19 -4 -3 -2 -6 4 -6 6 0
14 7 17 16 3 8 11 12 17 8 7 -4 10 -3 7 2 -7 11 17 35 26 27 3 -4 7 -1 7 5 1
7 2 18 3 25 1 6 10 11 20 9 10 -2 15 1 12 7 -4 5 3 12 14 16 11 3 20 11 20 17
0 6 8 7 18 3 13 -5 14 -4 5 6 -7 7 -9 18 -4 28 6 10 4 21 -5 29 -8 7 -14 10
-14 7 0 -3 -11 5 -24 17 -13 13 -21 27 -18 32 3 5 -2 7 -11 3 -11 -4 -17 -1
-17 8 0 8 -5 15 -11 15 -6 0 -18 8 -27 18 -10 10 -13 12 -8 5 6 -10 5 -12 -7
-7 -9 3 -19 14 -22 25 -4 10 -15 19 -26 19 -14 0 -18 4 -13 13 5 7 0 6 -11 -3
-11 -9 -16 -10 -11 -2 5 8 0 12 -14 12 -12 0 -28 7 -36 15 -8 8 -21 12 -29 9
-8 -4 -15 -2 -15 3 0 5 -13 10 -30 11 -53 3 -60 5 -60 16 0 6 -5 4 -10 -4 -7
-11 -10 -11 -10 -2 0 9 -5 10 -18 3 -11 -6 -24 -6 -34 0 -11 6 -19 5 -24 -2
-4 -8 -9 -7 -15 2 -7 12 -9 12 -9 0z"/>
</g>
</svg>
